<?xml version="1.0" encoding="UTF-8"?>
<!DOCTYPE svg PUBLIC "-//W3C//DTD SVG 1.1//EN" "http://www.w3.org/Graphics/SVG/1.1/DTD/svg11.dtd">
<svg version="1.1" xmlns="http://www.w3.org/2000/svg" xmlns:xlink="http://www.w3.org/1999/xlink" x="0" y="0" width="552" height="272" viewBox="0, 0, 552, 272">
  <g id="Layer_1">
    <path d="M549.583,66.249 C551.16,78.606 516.322,82.509 516.322,82.509 C516.322,82.509 547.257,83.25 532.582,106.473 C517.907,129.703 492.351,109.547 492.351,109.547 C490.773,118.829 458.254,132.029 452.869,111.125 C447.38,90.221 479.9,83.25 479.9,83.25 C424.995,80.924 446.64,36.057 485.388,34.479 C524.034,32.894 513.254,58.442 513.254,58.442 C529.515,45.338 548.101,53.799 549.583,66.249" fill="#BEAC96"/>
    <path d="M460.952,132.029 C470.989,132.029 479.159,136.853 479.159,142.894 C479.159,148.84 470.989,153.674 460.952,153.674 C456.583,153.674 452.585,152.736 449.431,151.159 C448.69,148.746 446.458,146.789 443.485,145.781 L443.39,145.781 C443.013,144.844 442.737,143.92 442.737,142.894 C442.737,136.853 450.921,132.029 460.952,132.029" fill="#BEAC96"/>
    <path d="M139.309,229.484 C139.309,229.484 147.021,180.524 146.192,173.553 C146.192,173.553 138.473,207.46 138.473,218.703 C138.196,213.13 136.249,178.663 127.701,175.509 C127.701,175.509 138.109,227.528 139.309,229.484 z M262.036,152.926 L268.266,82.975 C268.266,82.975 213.541,82.414 210.75,82.975 C208.251,83.439 193.009,122.361 189.104,132.391 L184.744,132.029 C184.744,132.029 171.828,160.826 174.619,161.945 C177.411,163.059 199.427,161.945 199.427,161.945 L200.72,152.926 L262.036,152.926 z M284.052,151.727 L367.581,154.037 C367.581,154.037 350.581,83.525 345.558,83.525 C340.456,83.525 286.844,82.975 286.844,82.975 L284.052,151.727 z M459.47,235.801 L398.61,238.022 C398.61,238.022 392.38,214.99 357.362,214.344 C322.429,213.783 324.103,243.693 324.103,243.693 L219.21,240.909 C219.21,240.909 219.771,208.762 189.294,206.435 C158.825,204.212 149.812,238.022 149.812,238.022 C149.812,238.022 143.866,234.869 142.014,232.922 C140.059,231.061 138.109,239.893 138.109,239.893 C138.109,239.893 115.716,168.916 117.292,166.962 C118.775,165.005 128.071,169.649 128.071,169.649 C128.071,169.649 130.026,159.619 132.337,157.75 C134.673,155.804 145.443,164.635 145.443,164.635 C145.443,164.635 145.081,156.173 148.503,155.44 C152.036,154.596 159.378,161.945 159.378,161.945 C159.378,161.945 192.085,64.853 203.417,63.742 C214.653,62.63 345.558,59.278 357.362,68.852 C369.261,78.417 396.845,164.721 396.845,164.721 C396.845,164.721 438.101,166.401 443.114,170.392 C446.089,172.718 451.284,194.923 454.999,212.94 L434.931,214.344 L436.144,229.105 L458.254,229.105 C459.004,233.198 459.47,235.801 459.47,235.801" fill="#005C87"/>
    <path d="M458.254,229.105 L436.144,229.105 L434.931,214.344 L454.999,212.94 C456.299,219.17 457.42,224.926 458.254,229.105" fill="#D51F46"/>
    <path d="M449.431,151.159 C449.62,151.727 449.707,152.277 449.707,152.926 C449.707,157.198 445.063,160.644 439.298,160.644 C433.542,160.644 428.803,157.198 428.803,152.926 C428.803,148.659 433.542,145.212 439.298,145.212 C440.788,145.212 442.089,145.402 443.39,145.781 L443.485,145.781 C444.416,148.005 446.553,149.857 449.431,151.159" fill="#BEAC96"/>
    <path d="M449.431,151.159 C446.553,149.857 444.416,148.005 443.485,145.781 C446.458,146.789 448.69,148.746 449.431,151.159" fill="#BEAC96"/>
    <path d="M444.313,114.563 C444.313,114.563 416.446,152.926 401.401,154.14 C401.401,154.14 423.418,115.769 444.313,114.563" fill="#007AB5"/>
    <path d="M361.637,224.279 C375.474,224.279 386.718,234.499 386.718,247.139 C386.718,259.676 375.474,269.99 361.637,269.99 C347.789,269.99 336.552,259.676 336.552,247.139 C336.552,234.499 347.789,224.279 361.637,224.279" fill="#343534"/>
    <path d="M367.581,154.037 L284.052,151.727 L286.844,82.975 C286.844,82.975 340.456,83.525 345.558,83.525 C350.581,83.525 367.581,154.037 367.581,154.037" fill="#6BC2BF"/>
    <path d="M268.266,82.975 L262.036,152.926 L200.72,152.926 L203.417,133.692 L189.104,132.391 C193.009,122.361 208.251,83.439 210.75,82.975 C213.541,82.414 268.266,82.975 268.266,82.975" fill="#6BC2BF"/>
    <path d="M184.46,221.125 C198.401,221.125 209.638,231.345 209.638,243.969 C209.638,256.609 198.401,266.829 184.46,266.829 C170.629,266.829 159.378,256.609 159.378,243.969 C159.378,231.345 170.629,221.125 184.46,221.125" fill="#343534"/>
    <path d="M189.104,132.391 L203.417,133.692 L200.72,152.926 L199.427,161.945 C199.427,161.945 177.411,163.059 174.619,161.945 C171.828,160.826 184.744,132.029 184.744,132.029 L189.104,132.391" fill="#007AB5"/>
    <path d="M131.976,100.629 C156.31,109.91 157.429,152.926 157.429,152.926 C142.376,133.141 131.976,100.629 131.976,100.629" fill="#007AB5"/>
    <path d="M145.443,250.293 C149.718,251.878 157.05,259.96 157.05,259.96 C157.05,259.96 150.097,266.553 121.566,259.96 C121.566,259.96 141.169,248.811 145.443,250.293" fill="#005C87"/>
    <path d="M138.473,218.703 C138.473,207.46 146.192,173.553 146.192,173.553 C147.021,180.524 139.309,229.484 139.309,229.484 C138.109,227.528 127.701,175.509 127.701,175.509 C136.249,178.663 138.196,213.13 138.473,218.703" fill="#007AB5"/>
    <path d="M125.375,220.187 L134.673,242.582 L128.442,244.536 C128.442,244.536 109.21,233.388 114.226,225.58 C119.241,217.869 125.375,220.187 125.375,220.187" fill="#005C87"/>
    <path d="M104.755,106.566 C103.635,106.653 102.895,106.844 102.895,106.844 C102.895,106.844 103.635,106.844 104.755,106.566 z M104.945,106.566 C108.745,106.196 116.465,106.473 117.576,114.649 C119.706,129.237 93.605,137.871 85.059,130.073 C76.604,122.361 88.212,112.324 88.212,112.324 C71.96,117.718 40.183,117.718 39.442,101.448 C38.606,85.197 57.183,78.235 57.183,78.235 C32.479,78.235 4.595,66.621 2.277,47.293 C-0.041,27.871 9.242,7.803 59.51,3.166 C109.856,-1.479 131.503,12.455 132.337,34.842 C133.095,57.323 82.731,68.197 82.731,68.197 C82.731,68.197 109.856,65.044 114.51,82.129 C119.8,101.363 109.493,105.644 104.945,106.566" fill="#A6937F"/>
    <path d="M120.353,135.561 C126.124,135.561 130.761,138.432 130.761,142.059 C130.761,145.679 126.124,148.659 120.353,148.659 C114.51,148.659 109.856,145.679 109.856,142.059 C109.856,138.432 114.51,135.561 120.353,135.561" fill="#A6937F"/>
    <path d="M96.483,253.825 C97.596,252.241 121.566,251.878 121.566,251.878 C121.566,251.878 96.854,262.278 92.958,262.278 C89.142,262.278 95.269,255.309 96.483,253.825" fill="#005C87"/>
  </g>
</svg>
