<?xml version="1.0" encoding="utf-8"?>

<!DOCTYPE svg PUBLIC "-//W3C//DTD SVG 1.1//EN" "http://www.w3.org/Graphics/SVG/1.1/DTD/svg11.dtd">
<svg version="1.1" id="Layer_1" xmlns="http://www.w3.org/2000/svg" xmlns:xlink="http://www.w3.org/1999/xlink" x="0px" y="0px"
	 viewBox="0 0 2398.796 1658.378" enable-background="new 0 0 2398.796 1658.378" xml:space="preserve">
<g>
	<path fill="#24316A" d="M264.986,335.679c2.323,10.969,12.091,19.09,23.555,19.09h100.253c2.706-27.81,26.211-49.62,54.72-49.62
		s52.014,21.81,54.72,49.62h1.379c2.706-27.81,26.211-49.62,54.72-49.62c27.532,0,50.398,20.34,54.371,46.782
		c7.587-4.058,12.763-12.055,12.763-21.244V153.06c0-13.28-10.803-24.083-24.082-24.083H288.541
		c-13.106,0-23.781,10.53-24.057,23.572C264.463,153.887,264.122,331.595,264.986,335.679z"/>
	<path fill="#24316A" d="M56.945,354.769h57.285c2.706-27.81,26.211-49.621,54.72-49.621c28.51,0,52.015,21.81,54.721,49.621
		c31.891,0,31.993,0.455,36.309-1.419c-6.204-7.783-7.903-15.578-7.906-24.803c-0.003-45.557-0.007-143.959,0.016-169.799h-81.353
		c-20.688,0-39.997,12.476-50.393,32.558l-29.811,57.595H56.945c-10.837,0-19.653,10.09-19.653,22.493v60.882
		C37.292,344.678,46.108,354.769,56.945,354.769z M129.96,229.299l14.582-35.969c1.732-4.273,5.883-7.069,10.494-7.069h54.648
		c6.254,0,11.323,5.07,11.323,11.323v35.969c0,6.254-5.07,11.323-11.323,11.323h-69.23
		C132.421,244.877,126.942,236.744,129.96,229.299z"/>
	<path fill="#24316A" d="M211.551,360.134c0-23.49-19.111-42.601-42.601-42.601s-42.601,19.111-42.601,42.601
		s19.111,42.601,42.601,42.601S211.551,383.624,211.551,360.134z"/>
	<path fill="#24316A" d="M486.115,360.134c0-23.49-19.111-42.601-42.601-42.601s-42.601,19.111-42.601,42.601
		s19.111,42.601,42.601,42.601S486.115,383.624,486.115,360.134z"/>
	<path fill="#24316A" d="M596.934,360.134c0-23.49-19.111-42.601-42.601-42.601s-42.601,19.111-42.601,42.601
		s19.111,42.601,42.601,42.601S596.934,383.624,596.934,360.134z"/>
</g>
<g>
	<path fill="none" d="M987.255,402.735l4.848-3.785c-0.417-0.451-1.756-2.096-3.49-4.849
		C985.493,396.379,985.432,400.399,987.255,402.735z"/>
	<path fill="#24316A" d="M967.378,227.039l-6.035-69.646c-0.378-4.361-3.211-7.456-6.543-8.249
		c-4.867-1.158,5.886-7.836-162.996,120.563c-6.345,4.824-2.26,16.096,5.159,14.234l164.222-46.911
		C964.891,235.97,967.797,231.873,967.378,227.039z"/>
	<path fill="#24316A" d="M1043.916,157.393l-6.035,69.646c-0.419,4.834,2.486,8.932,6.192,9.991l164.222,46.911
		c7.419,1.862,11.504-9.409,5.159-14.234c-168.834-128.362-158.129-121.72-162.996-120.563
		C1047.128,149.937,1044.294,153.032,1043.916,157.393z"/>
	<path fill="#24316A" d="M1022.165,355.814l20.564-267.768c2.297-29.903-13.296-50.25-28.754-56.499
		c-28.164-11.387-54.227,20.269-51.445,56.499l20.564,267.768c-13.646,8.497-5.841,3.637-36.538,22.751
		c-5.596,5.826-1.533,16.796,5.837,15.759c29.276-4.117,22.913-3.223,40.207-5.655c3.564,6.215-0.451,2.852-3.987,5.431
		c1.734,2.752,3.073,4.398,3.49,4.849l4.914-3.836c0.001,0,0.001,0.001,0.001,0.001c0.669,1.338,3.324,3.184,5.612,3.184
		c3.999,0,6.751-4.144,9.972-9.636c13.438,1.89,6.815,0.959,40.264,5.663c7.37,1.036,11.432-9.933,5.837-15.759l-24.806-15.446
		L1022.165,355.814z"/>
</g>
<g>
	<polygon fill="none" points="1663.221,208.698 1526.506,208.698 1562.194,295.449 	"/>
	<path fill="none" d="M1541.055,303.639l3.416-0.483l-31.701-76.989l-11.07,26.629
		C1521.073,263.362,1535.598,281.726,1541.055,303.639z"/>
	<path fill="none" d="M1498.507,260.479l-21.715,52.238l56.046-7.918C1527.862,285.805,1515.254,269.877,1498.507,260.479z"/>
	<path fill="none" d="M1705.65,166.869l-10.805-3.002l1.423,6.749C1700.232,170.032,1702.921,168.985,1705.65,166.869z"/>
	<path fill="none" d="M1720.757,326.868c-4.447,0.939-8.839-1.902-9.781-6.376l-14.083-66.828
		c-30.756,8.014-53.525,36.023-53.525,69.253c0,39.458,32.1,71.561,71.558,71.561c39.458,0,71.559-32.102,71.559-71.561
		c0-39.723-32.683-72.433-73.194-71.517l13.844,65.685C1728.074,321.549,1725.22,325.927,1720.757,326.868z"/>
	<path fill="none" d="M1535.121,321.155l-70.361,9.939c-6.308,0.896-11.231-5.436-8.777-11.345l27.28-65.623
		c-45.834-13.117-91.215,21.539-91.215,68.792c0,39.458,32.1,71.561,71.559,71.561s71.559-32.102,71.559-71.561
		C1535.166,322.326,1535.135,321.743,1535.121,321.155z"/>
	<path fill="#24316A" d="M1543.349,319.993c15.212-2.149,14.693-1.962,16.156-2.611c3.93-0.275-5.061,6.489,128.089-107.846
		l7.595,36.04c-34.495,8.808-60.077,40.142-60.077,77.341c0,44.012,35.806,79.817,79.815,79.817
		c44.01,0,79.816-35.805,79.816-79.817c0-45.038-37.554-81.636-83.182-79.73l-11.893-56.432
		c10.615-1.728,16.893-6.074,27.738-18.804c3.903-4.588,1.737-11.693-4.076-13.311l-37.156-10.321
		c-5.963-1.649-11.561,3.603-10.289,9.66l3.709,17.6c-2.5,0.085-5.221,0.181-8.209,0.314c-4.556,0.204-8.083,4.06-7.882,8.616
		c0.202,4.556,4.052,8.104,8.616,7.882c5.212-0.231,9.596-0.354,10.934-0.407l0.885,4.199h-164.443l-5.862-12.876
		c8.334-1.421,16.894-3.084,24.479-4.642c7.729-1.588,7.667-8.627-0.094-10.148c-35.723-6.998-39.771-8.866-47.215-5.591
		c-16.56,7.287-26.24,19.246-14.708,23.224c3.425,1.182,11.11,0.834,20.547-0.31l8.733,19.182c-0.446,0.943,2.089-5.11-18.92,45.428
		c-51.248-15.342-102.662,23.303-102.662,76.466c0,44.012,35.806,79.817,79.816,79.817
		C1508.422,402.735,1545,365.518,1543.349,319.993z M1786.486,322.917c0,39.458-32.1,71.561-71.559,71.561
		c-39.458,0-71.558-32.102-71.558-71.561c0-33.231,22.769-61.239,53.525-69.253l14.083,66.828c0.942,4.474,5.334,7.316,9.781,6.376
		c4.463-0.941,7.318-5.32,6.378-9.783l-13.844-65.685C1753.873,250.483,1786.486,283.26,1786.486,322.917z M1705.65,166.869
		c-2.729,2.117-5.419,3.163-9.382,3.747l-1.423-6.749L1705.65,166.869z M1663.221,208.698l-101.026,86.752l-35.689-86.752H1663.221z
		 M1512.77,226.167l31.701,76.989l-3.416,0.483c-5.457-21.912-19.981-40.277-39.354-50.843L1512.77,226.167z M1532.837,304.8
		l-56.046,7.918l21.715-52.238C1515.254,269.877,1527.862,285.805,1532.837,304.8z M1463.607,394.478
		c-39.458,0-71.559-32.102-71.559-71.561c0-47.258,45.386-81.907,91.215-68.792l-27.28,65.623
		c-2.454,5.909,2.469,12.242,8.777,11.345l70.361-9.939C1536.099,361.585,1503.52,394.478,1463.607,394.478z"/>
</g>
<g>
	<path fill="#24316A" d="M2231.823,849.401l-20.424-27.012c-11.5-15.209-29.464-24.148-48.531-24.148h-135.811
		c-16.136,0-31.611,6.41-43.022,17.82l-24.737,24.737c-5.848,5.848-13.504,9.542-21.72,10.48l-204.867,23.401l-11.839-35.043
		c-2.587-7.657-10.183-12.457-18.21-11.504l-10.288,1.22c-10.554,1.252-17.42,11.73-14.355,21.906
		c11.089,36.815,15.047,39.926,2.343,56.863c-5.212,6.949-3.309,16.876,4.103,21.406l12.008,7.338
		c8.151,4.981,18.791,2.481,23.87-5.609c12.565-20.011,10.706-16.935,12.294-19.925l204.614,17.302
		c7.556,0.639,14.465,4.188,19.777,9.599c26.844,27.342,88.552,46.476,160.422,46.476c96.523,0,174.771-34.503,174.771-77.065
		C2292.224,884.375,2268.801,863.531,2231.823,849.401z M2109.059,851.911h-85.613c-7.025,0-11.048-8.769-6.856-14.943
		l14.857-21.882c2.489-3.666,6.47-5.836,10.707-5.836h56.179c2.636,0,4.987,1.66,5.869,4.144l10.725,30.205
		C2116.368,847.653,2113.361,851.911,2109.059,851.911z M2194.937,851.911h-56.4c-3.192,0-6.037-2.009-7.105-5.017l-9.794-27.581
		c-1.743-4.908,1.897-10.063,7.105-10.063h40.302c9.35,0,18.028,5.195,22.915,13.717l9.479,16.533
		C2204.552,844.931,2200.896,851.911,2194.937,851.911z"/>
	<path fill="#24316A" d="M2089.866,774.871h17.33c4.594,0,8.318-3.724,8.318-8.318c0-4.593-3.725-8.318-8.318-8.318h-17.33
		c-4.594,0-8.318,3.724-8.318,8.318C2081.549,771.147,2085.273,774.871,2089.866,774.871z"/>
	<path fill="#24316A" d="M1844.681,777.787c3.289,1.063-11.282,1.26,214.676-7.705c1.535-0.061,2.748-1.323,2.748-2.86v-4.016
		c0-1.536-1.213-2.799-2.748-2.86l-210.088-8.335C1833.877,751.4,1830.194,773.104,1844.681,777.787z"/>
	<path fill="#24316A" d="M2347.793,752.011l-210.088,8.335c-1.535,0.061-2.748,1.323-2.748,2.86v4.016
		c0,1.536,1.213,2.799,2.748,2.86c225.793,8.958,211.372,8.773,214.676,7.705C2366.868,773.104,2363.186,751.4,2347.793,752.011z"/>
	<path fill="#24316A" d="M2255.193,1007.417h-90.608v-14.45c0-4.56-3.697-8.257-8.257-8.257c-4.56,0-8.257,3.697-8.257,8.257v14.45
		h-103.211v-18.578c0-4.56-3.697-8.257-8.257-8.257c-4.56,0-8.257,3.697-8.257,8.257v18.578h-68.805
		c-4.56,0-8.257,3.697-8.257,8.257c0,4.56,3.697,8.257,8.257,8.257h295.652c4.56,0,8.257-3.697,8.257-8.257
		C2263.45,1011.114,2259.752,1007.417,2255.193,1007.417z"/>
</g>
<g>
	<path fill="#24316A" d="M87.866,1005.353h542.892c27.931,0,50.574-22.643,50.574-50.574V845.375
		c0-27.931-22.643-50.574-50.574-50.574H197.269c-88.476,0-159.977,71.747-159.977,159.978
		C37.292,982.71,59.934,1005.353,87.866,1005.353z M513.44,820.604c0-6.27,5.083-11.353,11.353-11.353h116.973
		c6.27,0,11.353,5.083,11.353,11.353v37.844c0,6.27-5.083,11.353-11.353,11.353H524.794c-6.27,0-11.353-5.083-11.353-11.353V820.604
		z M368.256,820.604c0-6.27,5.083-11.353,11.353-11.353h116.973c6.27,0,11.353,5.083,11.353,11.353v37.844
		c0,6.27-5.083,11.353-11.353,11.353H379.61c-6.27,0-11.353-5.083-11.353-11.353V820.604z M223.072,820.604
		c0-6.27,5.083-11.353,11.353-11.353h116.973c6.27,0,11.353,5.083,11.353,11.353v37.844c0,6.27-5.083,11.353-11.353,11.353H234.426
		c-6.27,0-11.353-5.083-11.353-11.353V820.604z M75.273,866.607c30.519-45.592,75.446-60.796,76.971-60.796h48.811
		c7.22,0,13.073,5.853,13.073,13.073v38.876c0,7.22-5.853,13.073-13.073,13.073H77.572
		C75.407,870.834,74.069,868.405,75.273,866.607z"/>
	<path fill="#24316A" d="M688.556,1015.674H46.581c-5.455,0-5.462,8.257,0,8.257h641.975
		C694.018,1023.931,694.01,1015.674,688.556,1015.674z"/>
</g>
<g>
	<path fill="#24316A" d="M1472.928,737.14H977.513c-64.878,0-117.661,52.782-117.661,117.661v99.083
		c0,20.487,16.669,37.156,37.156,37.156h58.025c-4.726-32.199,20.349-60.74,52.439-60.74c32.135,0,57.159,28.585,52.439,60.74
		h277.447c-4.726-32.199,20.349-60.74,52.439-60.74c32.143,0,57.159,28.592,52.44,60.74h30.693
		c20.488,0,37.156-16.669,37.156-37.156V774.296C1510.084,753.809,1493.416,737.14,1472.928,737.14z M1048.729,817.645
		c0,11.4-9.242,20.642-20.642,20.642H918.683c-11.4,0-20.642-9.242-20.642-20.642v-11.869c0-25.366,20.563-45.929,45.929-45.929
		h84.117c11.4,0,20.642,9.242,20.642,20.642V817.645z M1201.482,818.677c0,10.83-8.78,19.61-19.61,19.61h-100.115
		c-10.83,0-19.61-8.78-19.61-19.61v-39.22c0-10.83,8.78-19.61,19.61-19.61h100.115c10.83,0,19.61,8.78,19.61,19.61V818.677z
		 M1350.106,818.677c0,10.83-8.78,19.61-19.61,19.61h-100.115c-10.83,0-19.61-8.78-19.61-19.61v-39.22
		c0-10.83,8.78-19.61,19.61-19.61h100.115c10.83,0,19.61,8.78,19.61,19.61V818.677z M1502.859,818.677
		c0,10.83-8.78,19.61-19.61,19.61h-100.115c-10.83,0-19.61-8.78-19.61-19.61v-39.22c0-10.83,8.78-19.61,19.61-19.61h100.115
		c10.83,0,19.61,8.78,19.61,19.61V818.677z"/>
	<path fill="#24316A" d="M1048.095,983.308c0-22.4-18.224-40.624-40.624-40.624c-22.4,0-40.624,18.224-40.624,40.624
		c0,22.4,18.224,40.622,40.624,40.622C1029.872,1023.931,1048.095,1005.708,1048.095,983.308z"/>
	<path fill="#24316A" d="M1430.42,983.308c0-22.4-18.224-40.624-40.624-40.624s-40.622,18.224-40.622,40.624
		c0,22.4,18.223,40.622,40.622,40.622S1430.42,1005.708,1430.42,983.308z"/>
</g>
<g>
	<path fill="#24316A" d="M1941.904,1541.89L1941.904,1541.89l-247.668-25.217l0,0l-174.532-17.771
		c-1.995-0.198-3.218,2.08-1.957,3.627c0.065,0.08,102.365,125.711,102.427,125.794c12.233,1.744,332.233,0.238,351.761,0.667
		c2.85-1.957,12.727-11.216,34.667-31.784c46.624-43.707,44.623-41.012,43.976-42.936
		C2049.913,1552.287,2057.323,1553.642,1941.904,1541.89z"/>
	<path fill="#24316A" d="M1722.038,1456.956l-12.293,48.847l222.765,22.682c3.516-13.901,5.482-21.436,6.602-26.004l-206.351-51.936
		C1728.035,1449.36,1723.228,1452.231,1722.038,1456.956z"/>
	<path fill="#24316A" d="M1914.925,1490.09c12.702,3.276,25.697-4.997,27.99-18.022c0.201-1.144,0.734-2.726-0.381-3.013
		l-172.5-44.495c-6.572-1.695-13.002,3.194-14.362,10.92l-1.359,7.719l-0.92,5.226L1914.925,1490.09z"/>
</g>
<g>
	<path fill="#24316A" d="M667.358,1511.516c-4.51-1.516-257.512-86.566-264.911-89.053c-31.653-10.64-66.527-9.423-97.229,3.394
		c-95.653,39.931-89.299,37.559-93.3,38.27l-60.63,10.769c-50.314,8.937-94.808,41.511-113.806,90.37
		c-0.181,0.464-0.225,1.302-0.166,2.411c0.88,16.324,14.872,28.873,31.219,28.873h63.103
		c-10.081-33.259,14.982-66.738,49.533-66.738c34.609,0,59.596,33.537,49.533,66.738h299.231
		c-10.081-33.259,14.982-66.738,49.533-66.738c34.609,0,59.596,33.537,49.533,66.738c15.19,0,26.977-10.305,30.286-23.785
		c0.581-2.366-1.622,0.636,19.414-23.593C689.848,1536.334,684.064,1517.132,667.358,1511.516z M477.599,1464.047H231.991v-3.563
		c12.549-2.18,0.447,2.016,80.676-30.742c24.198-9.88,51.686-10.819,76.634-2.616l89.499,29.426
		C482.95,1457.917,481.968,1464.047,477.599,1464.047z"/>
	<path fill="#24316A" d="M402.448,1422.463L402.448,1422.463C402.215,1422.385,402.226,1422.388,402.448,1422.463z"/>
	<path fill="#24316A" d="M228.797,1581.565c0-26.26-21.365-47.625-47.625-47.625s-47.625,21.365-47.625,47.625
		s21.365,47.624,47.625,47.624S228.797,1607.825,228.797,1581.565z"/>
	<path fill="#24316A" d="M627.093,1581.565c0-26.26-21.365-47.625-47.625-47.625c-26.26,0-47.625,21.365-47.625,47.625
		s21.365,47.624,47.625,47.624C605.729,1629.189,627.093,1607.825,627.093,1581.565z"/>
</g>
<g>
	<path fill="#24316A" d="M1312.235,1573.026h-125.152c3.393,31.531,30.156,56.163,62.573,56.163
		S1308.841,1604.557,1312.235,1573.026z"/>
	<path fill="#24316A" d="M929.369,1483.101c-9.735-2.98-16.446-11.369-17.866-20.892c-26.309,4.831-49.893,23.431-58.497,52.379
		c39.461-28.271,96.649-24.117,130.907,14.636C973.037,1507.318,953.586,1490.501,929.369,1483.101z"/>
	<path fill="#24316A" d="M1311.012,1418.777c1.247-0.985,1.572-2.818,0.623-4.221l-12.778-18.924
		c-1.265-1.87,7.412-1.337-145.634-0.04c-19.455,0.164-37.457,8.631-49.235,21.114c-1.633,1.727-0.781,4.449,1.449,4.849
		C1159.436,1430.012,1260.585,1439.612,1311.012,1418.777z"/>
	<path fill="#24316A" d="M930.032,1399.993l6.771-23.505c0.653-2.266-0.43-4.604-2.376-5.654
		c-12.706-6.855-13.429-7.814-16.519-6.978c-0.305,10.899-5.574,26.735-11.77,34.712c0.913,1.223,2.278,2.121,3.924,2.404
		c14.991,2.579,14.65,2.673,15.945,2.492C927.873,1403.203,929.485,1401.89,930.032,1399.993z"/>
	<path fill="#24316A" d="M851.644,1566.245c0,34.709,28.241,62.944,62.95,62.944s62.944-28.235,62.944-62.944
		s-28.235-62.944-62.944-62.944S851.644,1531.536,851.644,1566.245z"/>
	<path fill="#24316A" d="M911.7,1358.336c-6.742,4.261-15.512,31.888-12.495,39.231
		C905.944,1393.308,914.717,1365.68,911.7,1358.336z"/>
	<path fill="#24316A" d="M942.552,1374.899c-0.322-2.154-0.157-2.872-0.926-2.916c-0.556-0.114-0.59,0.301-0.63,0.443
		l-23.219,80.602c-2.985,10.361,2.973,21.363,13.295,24.512c34.715,10.617,60.249,39.407,66.632,75.138l2.605,14.537h330.217
		c25.619-36.78,26.067-86.123,0.97-123.267l-14.43-21.358c-49.915,24.172-162.361,13.304-220.449,3.427
		c-9.101,13.823-12.636,30.295-9.958,46.586l4.426,26.822H997.84c-27.131-18.704-43.669-46.832-48.129-76.67l-6.444-43.073
		c1.846,0.946,3.012-0.347,5.544-2.189c5.296-3.853,6.226-4.805,7.563-4.981c0.75,3.655,0.821,2.838,31.501,19.217
		c2.807,1.504,6.344,0.46,7.859-2.389c1.515-2.831,0.443-6.349-2.389-7.859l-28.57-15.252c-2.086-1.119-4.565-0.819-6.324,0.563
		c-4.745-0.596-7.284,1.803-10.657,4.257C947.367,1371.36,942.951,1374.552,942.552,1374.899z"/>
</g>
</svg>
