<?xml version="1.0" encoding="UTF-8" standalone="no"?>
<!-- Generator: Adobe Illustrator 14.0.0, SVG Export Plug-In . SVG Version: 6.00 Build 43363)  -->

<svg
   xmlns:i="&amp;#38;#38;ns_ai;"
   xmlns:dc="http://purl.org/dc/elements/1.1/"
   xmlns:cc="http://creativecommons.org/ns#"
   xmlns:rdf="http://www.w3.org/1999/02/22-rdf-syntax-ns#"
   xmlns:svg="http://www.w3.org/2000/svg"
   xmlns="http://www.w3.org/2000/svg"
   xmlns:sodipodi="http://sodipodi.sourceforge.net/DTD/sodipodi-0.dtd"
   xmlns:inkscape="http://www.inkscape.org/namespaces/inkscape"
   version="1.0"
   x="0px"
   y="0px"
   width="346.30698"
   height="124.01144"
   viewBox="0 0 346.30698 124.01144"
   enable-background="new 0 0 330 400"
   xml:space="preserve"
   id="svg2"
   inkscape:version="0.91 r13725"
   sodipodi:docname="PoliceCar.svg"><metadata
     id="metadata314"><rdf:RDF><cc:Work
         rdf:about=""><dc:format>image/svg+xml</dc:format><dc:type
           rdf:resource="http://purl.org/dc/dcmitype/StillImage" /><dc:title /></cc:Work></rdf:RDF></metadata><defs
     id="defs312" /><sodipodi:namedview
     pagecolor="#ffffff"
     bordercolor="#666666"
     borderopacity="1"
     objecttolerance="10"
     gridtolerance="10"
     guidetolerance="10"
     inkscape:pageopacity="0"
     inkscape:pageshadow="2"
     inkscape:window-width="1916"
     inkscape:window-height="1035"
     id="namedview310"
     showgrid="false"
     inkscape:zoom="1.18"
     inkscape:cx="94.513424"
     inkscape:cy="10.59182"
     inkscape:window-x="4"
     inkscape:window-y="1"
     inkscape:window-maximized="1"
     inkscape:current-layer="svg2"
     showguides="false"
     fit-margin-top="0"
     fit-margin-left="0"
     fit-margin-right="0"
     fit-margin-bottom="0" /><path
     d="m 6.7855097,64.718081 c -4.2548971,0 -5.234888,6.583757 -5.234888,11.523656 0,4.937817 0,8.233857 0,12.181198 0,3.951503 1.4720538,10.044183 5.234888,13.829215 7.8523323,0 33.3713773,0 33.3713773,0 l 7.525668,-1.97471 43.841153,0 10.143112,8.23178 159.00662,0 29.44521,-10.866112 29.44521,8.560552 c 21.92161,0 25.19238,-3.29396 25.19238,-21.730147 0,-18.440345 0,-14.164232 -1.63538,-19.757513 C 341.48547,59.118559 314.65564,51.873097 299.60637,50.553848 284.5571,49.236681 257.72933,48.250366 251.83905,47.590741 239.08056,37.382173 221.08512,25.198893 213.23279,22.235786 c -7.85234,-2.965187 -45.80527,-5.36855 -61.18121,-5.597441 -18.63636,-0.276751 -48.56123,3.260666 -64.373406,7.324533 -13.238147,3.402163 -25.49837,10.283479 -29.523775,12.763832 -7.151453,4.405125 -12.322249,5.89084 -19.63083,5.926214 -5.243158,0.02705 -17.34005,0 -21.266216,0 -3.926166,0 -4.252829,0 -5.561551,2.305563 -1.31079,2.305564 -4.5836287,15.477239 -4.9102923,19.759594 z"
     id="path242"
     inkscape:connector-curvature="0"
     style="fill:#ffffff;stroke:#000000;stroke-width:3.11122751;stroke-opacity:1" /><path
     d="m 101.66682,108.5113 c 1.42243,-3.68099 2.20395,-7.68868 2.20395,-11.883639 0,-17.922218 -14.267761,-32.450596 -31.870382,-32.450596 -17.602621,0 -31.870379,14.526297 -31.870379,32.450596 0,1.876912 0.15713,3.720529 0.456916,5.510049 l 7.091495,-1.86235 43.841153,0 10.147247,8.23594 z"
     id="path244"
     inkscape:connector-curvature="0"
     style="fill:#000000;fill-opacity:1" /><path
     d="m 320.79609,106.19741 c 0.91383,-3.02553 1.40796,-6.238334 1.40796,-9.569749 0,-17.922218 -14.26569,-32.450596 -31.86831,-32.450596 -17.60262,0 -31.87038,14.526297 -31.87038,32.450596 0,4.194959 0.78151,8.202649 2.20188,11.881559 l 29.44934,-10.866112 30.67951,8.554302 z"
     id="path246"
     inkscape:connector-curvature="0"
     style="fill:#000000;fill-opacity:1" /><ellipse
     cx="72.000381"
     cy="96.62767"
     id="circle248"
     style="fill:#000000;fill-opacity:1;stroke:#ffffff;stroke-width:2.07415152"
     rx="26.17444"
     ry="26.343351" /><ellipse
     cx="72.000381"
     cy="96.62767"
     id="circle250"
     style="fill:#ffffff"
     rx="15.921751"
     ry="16.024498" /><ellipse
     cx="290.33365"
     cy="96.62767"
     id="circle252"
     style="fill:#000000;fill-opacity:1;stroke:#ffffff;stroke-width:2.07415152"
     rx="26.17444"
     ry="26.343351" /><ellipse
     cx="290.33365"
     cy="96.62767"
     id="circle254"
     style="fill:#ffffff"
     rx="15.921751"
     ry="16.024498" /><path
     d="m 331.99569,79.918569 c 1.95998,3.289798 3.9241,5.100123 12.75849,5.100123"
     id="path256"
     inkscape:connector-curvature="0"
     style="fill:none;stroke:#000000;stroke-width:1.55561376;stroke-linecap:round;stroke-linejoin:round;stroke-opacity:1" /><path
     d="m 314.93268,55.641486 c 13.91629,4.290678 22.43022,9.345023 24.17518,11.103327"
     id="path258"
     inkscape:connector-curvature="0"
     style="fill:none;stroke:#000000;stroke-width:1.55561376;stroke-linecap:round;stroke-linejoin:round;stroke-opacity:1" /><path
     d="m 332.97361,65.346493 c -3.10744,0 -7.36233,0.330852 -7.36233,3.868269 0,3.539498 0,4.117969 0,5.185437 0,1.067468 2.9441,5.516289 5.23695,5.516289 2.28871,0 2.69601,0 3.2687,0 0.5727,0 1.96412,-0.110284 2.70222,-0.520208 0.73602,-0.412005 1.99926,-1.283874 2.80145,-2.091238 0.35354,-0.355822 0.63265,-3.564467 0.55202,-4.673551 -0.0827,-1.113246 0.12198,-5.224973 -1.41003,-6.300764 -1.52995,-1.07371 -4.38929,-0.984234 -5.78898,-0.984234 z"
     id="path260"
     inkscape:connector-curvature="0"
     style="fill:none;stroke:#000000;stroke-width:1.55561376;stroke-opacity:1" /><path
     d="m 336.82121,79.177792 c 0,0.844819 -2.12745,0.740777 -2.70221,0.740777 -0.57476,0 -0.97999,0 -3.2687,0 -2.29285,0 -5.23696,-4.448822 -5.23696,-5.516289 0,-1.067468 0,-1.645939 0,-5.185437 0,-3.537417 4.2549,-3.868269 7.36234,-3.868269 3.84553,2.220249 3.84553,11.030498 3.84553,13.829218 z"
     id="path262"
     inkscape:connector-curvature="0"
     style="fill:none;stroke:#000000;stroke-width:1.55561376;stroke-opacity:1" /><path
     d="m 149.80422,21.139187 c 1.59197,5.597442 7.352,24.037788 8.23275,27.333828 0.88282,3.289797 1.8442,7.903005 1.69121,11.852427 -0.15506,3.949422 0,24.364478 0,27.98929 0,3.62065 -1.46379,10.204407 -3.09917,13.169598"
     id="path264"
     inkscape:connector-curvature="0"
     style="fill:none;stroke:#000000;stroke-width:1.55561376;stroke-opacity:1" /><path
     d="m 233.50454,48.799706 c 3.60984,2.636416 7.20727,6.585837 8.51599,12.514132 1.31079,5.926213 1.63539,22.72062 0,29.304377 -1.63538,6.585837 -3.99025,12.183275 -3.99025,12.183275 -14.33185,-0.32877 -125.17833,-2.25146 -132.6151,-2.63641 C 106.57091,88.972275 102.77706,74.483432 91.424469,67.895514 80.069806,61.311757 82.883662,49.786021 83.929813,35.295097 98.063183,28.713421 128.25062,21.137106 147.67264,21.137106 c 19.42615,0 31.92413,0.72413 36.73518,1.054983 4.80692,0.326691 12.27677,0.780313 19.84172,5.859627 l 29.255,20.74799 z"
     id="path266"
     inkscape:connector-curvature="0"
     style="fill:none;stroke:#000000;stroke-width:1.55561376;stroke-linecap:round;stroke-linejoin:round;stroke-opacity:1" /><path
     d="M 151.7642,48.473015 145.43975,25.49021 c -16.94723,0 -31.18398,3.554063 -41.56898,7.174713 -10.385013,3.620651 -0.37215,13.498367 10.16378,15.808092 l 37.72965,0 z"
     id="path268"
     inkscape:connector-curvature="0"
     style="fill:none;stroke:#000000;stroke-width:1.55561376;stroke-linecap:round;stroke-linejoin:round;stroke-opacity:1" /><path
     d="m 205.64303,32.334071 c -5.39409,-4.240738 -11.03627,-6.583757 -20.84445,-6.583757 -12.43183,0 -28.1675,-0.520208 -28.1675,-0.520208 l 5.98745,23.242909 65.48986,0 -22.46536,-16.138944 z"
     id="path270"
     inkscape:connector-curvature="0"
     style="fill:none;stroke:#000000;stroke-width:1.55561376;stroke-linecap:round;stroke-linejoin:round;stroke-opacity:1" /><path
     d="m 215.68483,37.769208 c -2.90276,-1.718769 -6.87027,-0.659624 -6.87027,2.141177 0,2.79664 -0.9862,7.401525 3.4341,7.409848 3.68013,0.0021 4.74283,-1.19856 6.05568,-3.131654 1.30872,-1.928933 0.16127,-4.773432 -2.61951,-6.419371 z"
     id="path272"
     inkscape:connector-curvature="0"
     style="fill:#ffffff;stroke:#000000;stroke-width:1.55561376;stroke-opacity:1" /><polyline
     points="      184.034,59.489 181.566,60.739 198.235,72.504 204.195,72.081     "
     id="polyline274"
     style="fill:none;stroke:#000000;stroke-width:0.65530002;stroke-linecap:round;stroke-linejoin:round;stroke-opacity:1"
     transform="matrix(2.0674913,0,0,2.0808334,-170.33647,-102.39573)" /><path
     d="m 20.736941,42.61755 c 0.661597,6.182156 -4.356204,18.036664 -8.063216,23.742309"
     id="path276"
     inkscape:connector-curvature="0"
     style="fill:none;stroke:#000000;stroke-width:1.55561376;stroke-linecap:round;stroke-linejoin:round;stroke-opacity:1" /><path
     d="M 37.973616,67.897595 C 32.085401,68.557219 11.582089,67.681188 6.7855097,64.718081"
     id="path278"
     inkscape:connector-curvature="0"
     style="fill:none;stroke:#000000;stroke-width:1.55561376;stroke-linecap:round;stroke-linejoin:round;stroke-opacity:1" /><line
     x1="233.50453"
     y1="96.71714"
     x2="109.32069"
     y2="94.898491"
     id="line280"
     style="fill:none;stroke:#000000;stroke-width:1.55561376;stroke-linecap:round;stroke-linejoin:round;stroke-opacity:1" /><path
     d="m 118.93037,59.559695 10.11624,0 c 2.20188,0 3.85173,0.530613 4.95371,1.585595 1.09577,1.054983 1.64365,2.555264 1.64365,4.502924 0,1.999681 -0.59544,3.564467 -1.79045,4.690198 -1.19707,1.127812 -3.02267,1.689637 -5.47678,1.689637 l -3.33073,0 0,7.357827 -6.1115,0 0,-19.826181 z m 6.11151,8.454426 1.49273,0 c 1.17226,0 1.99719,-0.206002 2.47065,-0.615926 0.47552,-0.409925 0.71328,-0.936375 0.71328,-1.575191 0,-0.622169 -0.20675,-1.150701 -0.61818,-1.583514 -0.41143,-0.432814 -1.18467,-0.649221 -2.32593,-0.649221 l -1.73255,0 0,4.423852 z"
     id="path282"
     inkscape:connector-curvature="0"
     style="fill:#000000;fill-opacity:1" /><path
     d="m 138.06294,69.487351 c 0,-3.235696 0.89315,-5.759747 2.68567,-7.559667 1.79045,-1.802002 4.28591,-2.705084 7.48432,-2.705084 3.27697,0 5.80345,0.886435 7.57529,2.657224 1.7739,1.77287 2.66086,4.253224 2.66086,7.443142 0,2.315967 -0.38869,4.215768 -1.16193,5.699402 -0.77325,1.483634 -1.89383,2.636416 -3.35761,3.460426 -1.46585,0.826091 -3.28938,1.238096 -5.47472,1.238096 -2.22048,0 -4.06055,-0.355823 -5.514,-1.069548 -1.45758,-0.711645 -2.63605,-1.839457 -3.54161,-3.381355 -0.90556,-1.537736 -1.35627,-3.466668 -1.35627,-5.782636 z m 6.08462,0.02705 c 0,1.999681 0.36802,3.437537 1.10611,4.311487 0.7381,0.87395 1.74496,1.310925 3.01647,1.310925 1.30872,0 2.31766,-0.426571 3.03715,-1.283874 0.71742,-0.855223 1.07716,-2.392959 1.07716,-4.611127 0,-1.866508 -0.37628,-3.229453 -1.12472,-4.090918 -0.74636,-0.859385 -1.7615,-1.290117 -3.04334,-1.290117 -1.22396,0 -2.21015,0.436975 -2.95445,1.313006 -0.74429,0.871869 -1.11438,2.320129 -1.11438,4.340618 z"
     id="path284"
     inkscape:connector-curvature="0"
     style="fill:#000000;fill-opacity:1" /><path
     d="m 161.74605,59.559695 6.08876,0 0,14.944546 9.49392,0 0,4.881635 -15.58268,0 0,-19.826181 z"
     id="path286"
     inkscape:connector-curvature="0"
     style="fill:#000000;fill-opacity:1" /><path
     d="m 180.34107,59.559695 6.0991,0 0,19.8241 -6.0991,0 0,-19.8241 z"
     id="path288"
     inkscape:connector-curvature="0"
     style="fill:#000000;fill-opacity:1" /><path
     d="m 207.76014,75.124329 0,4.596561 -7.54221,0 c -2.13986,0 -3.88895,-0.312125 -5.24523,-0.938456 -1.35834,-0.626331 -2.52854,-1.729172 -3.51473,-3.302282 -0.9862,-1.579353 -1.47826,-3.597761 -1.47826,-6.053145 0,-3.281474 0.87042,-5.801363 2.60091,-7.561748 1.73669,-1.760385 4.1846,-2.64474 7.3582,-2.64474 l 7.63731,0 0,4.584076 -7.49259,0 c -1.37488,0 -2.4355,0.561825 -3.16946,1.677152 -0.55409,0.826091 -0.8332,2.124531 -0.8332,3.901563 0,2.199441 0.33286,3.701802 0.99446,4.517489 0.6616,0.817768 1.5961,1.22353 2.79732,1.22353 l 7.88748,0 z"
     id="path290"
     inkscape:connector-curvature="0"
     style="fill:#000000;fill-opacity:1" /><path
     d="m 210.70424,59.559695 16.31251,0 0,4.236577 -10.20927,0 0,3.148301 9.47118,0 0,4.040978 -9.47118,0 0,3.909886 10.50492,0 0,4.488358 -16.60609,0 0,-19.8241 z"
     id="path292"
     inkscape:connector-curvature="0"
     style="fill:#000000;fill-opacity:1" /><path
     d="m 163.81147,13.502529 c 2.71255,0 9.96945,-0.216407 9.96945,-2.94438 l 0,-3.1982405 c 0,-2.7300534 -5.90269,-6.57959519 -8.61524,-6.57959519 l -2.99373,0 c -2.71255,0 -8.61523,3.85162259 -8.61523,6.57959519 l 0,3.1982405 c 0,2.727973 7.25482,2.94438 9.96737,2.94438 l 0.28738,0 z"
     id="path294"
     inkscape:connector-curvature="0"
     style="fill:#ffffff;stroke:#000000;stroke-width:1.55561376;stroke-opacity:1" /><path
     d="m 44.604061,56.384343 c 0.248098,0.02497 0.483792,0.01248 0.843536,-0.02705 0.607842,-0.04786 1.190875,-0.262185 1.637453,-0.62425 0.533413,-0.42241 0.893156,-1.034175 1.042016,-1.808245 l -0.02481,0 c -0.409363,0.44946 -0.990329,0.711645 -1.761503,0.711645 -1.401759,0 -2.441707,-1.009204 -2.441707,-2.507404 0,-1.560625 1.190875,-2.89652 2.90069,-2.89652 1.883485,0 2.875881,1.47323 2.875881,3.456264 0,1.735415 -0.558223,2.96935 -1.401759,3.780875 -0.694677,0.64922 -1.662263,1.034174 -2.751831,1.109084 -0.347339,0.03954 -0.682272,0.03954 -0.917966,0.02497 l 0,-1.219369 z m 0.806321,-4.342699 c 0,0.834414 0.483793,1.483634 1.32733,1.483634 0.620247,0 1.066825,-0.29964 1.302519,-0.672109 0.04962,-0.112365 0.08684,-0.237215 0.08684,-0.44946 0,-1.09868 -0.409364,-2.035055 -1.401759,-2.035055 -0.769107,0 -1.314925,0.686675 -1.314925,1.67299 z"
     id="path304"
     inkscape:connector-curvature="0"
     style="fill:#000000;fill-opacity:1" /><path
     d="m 53.037358,50.755689 -0.02481,0 -1.476189,0.7491 -0.260504,-1.161105 1.972387,-0.97383 1.265304,0 0,8.109008 -1.476188,0 0,-6.723173 z"
     id="path306"
     inkscape:connector-curvature="0"
     style="fill:#000000;fill-opacity:1" /><path
     d="m 59.68641,50.755689 -0.02481,0 -1.476189,0.7491 -0.260504,-1.161105 1.972387,-0.97383 1.265304,0 0,8.109008 -1.476188,0 0,-6.723173 z"
     id="path308"
     inkscape:connector-curvature="0"
     style="fill:#000000;fill-opacity:1" /><i:pgf
     id="adobe_illustrator_pgf" /></svg>